<svg width="28" height="28" viewBox="0 0 28 28" fill="none" xmlns="http://www.w3.org/2000/svg">
<path d="M12.6667 0.666672C19.2907 0.666672 24.6667 6.04267 24.6667 12.6667C24.6667 19.2907 19.2907 24.6667 12.6667 24.6667C6.04266 24.6667 0.666656 19.2907 0.666656 12.6667C0.666656 6.04267 6.04266 0.666672 12.6667 0.666672ZM12.6667 22C17.8227 22 22 17.8227 22 12.6667C22 7.50934 17.8227 3.33334 12.6667 3.33334C7.50932 3.33334 3.33332 7.50934 3.33332 12.6667C3.33332 17.8227 7.50932 22 12.6667 22ZM23.98 22.0947L27.752 25.8653L25.8653 27.752L22.0947 23.98L23.98 22.0947Z" fill="#E62B25"/>
</svg>
